<svg width="10" height="10" xmlns="http://www.w3.org/2000/svg" xmlns:xlink="http://www.w3.org/1999/xlink"><title>member</title><desc>Created with Sketch.</desc><defs><path id="a" d="M.026.107h4.713v4.481H.026z"/><path id="c" d="M0 .034h2.453v3.848H0z"/><path id="e" d="M.073.034h2.453v3.848H.073z"/></defs><g fill="none" fill-rule="evenodd"><path d="M4.971 4.116a1.558 1.558 0 100-3.116 1.558 1.558 0 000 3.116" fill="#008AE1"/><g transform="translate(2.588 4.377)"><mask id="b" fill="#fff"><use xlink:href="#a"/></mask><path d="M4.739 1.877v2.711H.026v-2.71C.026.901.82.106 1.796.106H2.97c.977 0 1.771.795 1.77 1.77" fill="#008AE1" mask="url(#b)"/></g><path d="M1.883 4.767a1.104 1.104 0 100-2.208 1.104 1.104 0 000 2.208" fill="#008AE1"/><g transform="translate(0 5.083)"><mask id="d" fill="#fff"><use xlink:href="#c"/></mask><path d="M2.453.039c-.197.333-.31.72-.31 1.133v2.71H.927A.926.926 0 010 2.956V1.448C0 .669.634.034 1.414.034h.938a.97.97 0 01.1.005" fill="#008AE1" mask="url(#d)"/></g><path d="M8.055 4.767a1.104 1.104 0 110-2.208 1.104 1.104 0 010 2.208" fill="#008AE1"/><g transform="translate(7.412 5.083)"><mask id="f" fill="#fff"><use xlink:href="#e"/></mask><path d="M.073.039c.196.333.31.72.31 1.133v2.71H1.6a.926.926 0 00.926-.926V1.448c0-.779-.634-1.414-1.414-1.414H.174a.97.97 0 00-.101.005" fill="#008AE1" mask="url(#f)"/></g></g></svg>