<svg width="10" height="10" xmlns="http://www.w3.org/2000/svg"><title>quiz</title><desc>Created with Sketch.</desc><path d="M4.418 2.525a.847.847 0 01-.33-.668A.87.87 0 014.971 1a.87.87 0 01.882.857.847.847 0 01-.338.675L7.017 5l1.759-1.323a.704.704 0 01-.247-.534c0-.395.33-.714.736-.714.406 0 .735.32.735.714 0 .386-.315.7-.708.714L8.38 7.152H1.667L.845 3.85A.725.725 0 010 3.143c0-.395.33-.714.735-.714.406 0 .736.32.736.714a.702.702 0 01-.218.507L2.797 5l1.621-2.475zM1.69 7.603h6.58L8.678 9H1.318l.372-1.397z" fill="#008AE1" fill-rule="evenodd"/></svg>